<svg width="61" height="61" viewBox="0 0 61 61" fill="none" xmlns="http://www.w3.org/2000/svg">
  <g id="Logo-Media / Purple(Default)">
    <circle id="Ellipse 1" cx="30.0293" cy="30.5599" r="30" fill="#663CEE"/>
    <path id="Union" fill-rule="evenodd" clip-rule="evenodd" d="M16.696 18.2636C16.696 15.7477 18.7356 13.7081 21.2515 13.7081H38.807C41.323 13.7081 43.3626 15.7477 43.3626 18.2636C43.3626 20.7796 41.323 22.8192 38.807 22.8192H21.2515C18.7356 22.8192 16.696 20.7796 16.696 18.2636ZM25.0293 30.3747C25.0293 27.8587 27.0689 25.8191 29.5848 25.8191H38.8071C41.323 25.8191 43.3626 27.8587 43.3626 30.3747C43.3626 32.8906 41.323 34.9302 38.8071 34.9302H29.5848C27.0689 34.9302 25.0293 32.8906 25.0293 30.3747ZM21.2515 37.9303C18.7356 37.9303 16.696 39.9698 16.696 42.4858C16.696 45.0018 18.7356 47.0413 21.2515 47.0413H38.8071C41.323 47.0413 43.3626 45.0018 43.3626 42.4858C43.3626 39.9698 41.323 37.9303 38.8071 37.9303H21.2515Z" fill="white"/>
  </g>
</svg>
